<svg xmlns="http://www.w3.org/2000/svg" width="120" height="120" viewBox="0 0 120 120">
  <g id="グループ_8" data-name="グループ 8" transform="translate(-626 -738)">
    <g id="グループ_4" data-name="グループ 4">
      <path id="パス_12" data-name="パス 12" d="M678.159,783.486h-3.088V770.557H671.1v-2.7h11.023v2.7h-3.967Z" fill="#72ad8c"/>
      <path id="パス_13" data-name="パス 13" d="M693.295,776.8v6.69h-3.046v-1.309a3.689,3.689,0,0,1-1.423,1.193,4.912,4.912,0,0,1-5.031-.638,3.874,3.874,0,0,1-1.114-2.952,3.516,3.516,0,0,1,1.329-3.031,6.963,6.963,0,0,1,4.114-.979h2.125v-.512a1.293,1.293,0,0,0-.539-1.126,2.739,2.739,0,0,0-1.586-.382,8.2,8.2,0,0,0-2.13.277,10.011,10.011,0,0,0-2.151.885v-2.617a10.592,10.592,0,0,1,2.062-.618,11.922,11.922,0,0,1,2.219-.2q2.857,0,4.015,1.163T693.295,776.8Zm-4.271,1.183a4.7,4.7,0,0,0-2.4.44,1.655,1.655,0,0,0-.68,1.508,1.624,1.624,0,0,0,1.748,1.737,2.2,2.2,0,0,0,1.884-.916,4.265,4.265,0,0,0,.67-2.56v-.209Z" fill="#72ad8c"/>
      <path id="パス_14" data-name="パス 14" d="M696.125,767.2h3.067v8.553l3.685-3.989h3.716l-4.438,4.376,4.69,7.349h-3.392L700.239,778l-1.047,1.005v4.481h-3.067Z" fill="#72ad8c"/>
      <path id="パス_15" data-name="パス 15" d="M708.267,779.392v-7.631h3.19v7.16a3.33,3.33,0,0,0,.37,1.811,1.379,1.379,0,0,0,1.23.545,1.528,1.528,0,0,0,1.345-.733,3.7,3.7,0,0,0,.484-2.052v-6.731h3.19v11.725h-3.19v-1.738a2.87,2.87,0,0,1-1.148,1.507,3.474,3.474,0,0,1-1.954.534,3.168,3.168,0,0,1-2.63-1.109A5.188,5.188,0,0,1,708.267,779.392Z" fill="#72ad8c"/>
      <path id="パス_16" data-name="パス 16" d="M728.716,772.933a2.81,2.81,0,0,1,1.108-1.1,3.491,3.491,0,0,1,1.648-.356,3.01,3.01,0,0,1,2.645,1.047q.732,1.047.732,4.355v6.606h-3.166v-7.527a4.026,4.026,0,0,0-.25-1.748.957.957,0,0,0-.91-.44.981.981,0,0,0-.924.45,3.852,3.852,0,0,0-.263,1.738v7.527h-3.127v-7.527a3.866,3.866,0,0,0-.263-1.738.981.981,0,0,0-.924-.45.957.957,0,0,0-.91.44,4.026,4.026,0,0,0-.25,1.748v7.527H720.7V771.761h2.81v1.215a2.431,2.431,0,0,1,1.055-1.094,3.277,3.277,0,0,1,1.622-.4,3.236,3.236,0,0,1,1.636.424A1.737,1.737,0,0,1,728.716,772.933Z" fill="#72ad8c"/>
      <path id="パス_17" data-name="パス 17" d="M737.8,771.761h5.04v9.369H746v2.356h-8.88V781.13h3.172v-7.013H737.8Zm2.494-4.878h2.546v3.581h-2.546Z" fill="#72ad8c"/>
    </g>
    <path id="パス_36" data-name="パス 36" d="M746,783.517H654.966V738H626v82.759a37.241,37.241,0,0,0,74.483,0L746,858Zm-90.142.733h0Z" fill="#72ad8c"/>
  </g>
</svg>
