<svg xmlns="http://www.w3.org/2000/svg" width="90.415" height="120" viewBox="0 0 90.415 120">
  <g id="scroll" transform="translate(-800.991 -911)">
    <rect id="長方形_9" data-name="長方形 9" width="28.767" height="82.192" transform="translate(862.639 911)" fill="#72ad8c"/>
    <g id="グループ_5" data-name="グループ 5">
      <path id="パス_20" data-name="パス 20" d="M804.467,951.317a6.855,6.855,0,0,1-2.755-1.629,3.439,3.439,0,0,1-.721-2.295,3.7,3.7,0,0,1,1.186-2.91,4.715,4.715,0,0,1,3.257-1.059,8.427,8.427,0,0,1,1.88.215,9.693,9.693,0,0,1,1.861.634V946.9a7.343,7.343,0,0,0-1.761-.931,5.234,5.234,0,0,0-1.77-.319,2.444,2.444,0,0,0-1.5.392,1.322,1.322,0,0,0-.52,1.122,1.252,1.252,0,0,0,.378.935,4.928,4.928,0,0,0,1.583.817l1.159.438a5.28,5.28,0,0,1,2.418,1.6,3.959,3.959,0,0,1,.775,2.509,3.781,3.781,0,0,1-1.218,3.079,5.639,5.639,0,0,1-3.681,1.018,8.762,8.762,0,0,1-2.03-.242c-.678-.161-1.385.029-2.017-.288l.051-3.211a9.073,9.073,0,0,0,2.085,1.141,5.707,5.707,0,0,0,1.993.374,2.36,2.36,0,0,0,1.542-.452,1.547,1.547,0,0,0,.547-1.264,1.681,1.681,0,0,0-.365-1.072,2.408,2.408,0,0,0-1.058-.725Z" fill="#72ad8c"/>
      <path id="パス_21" data-name="パス 21" d="M819.809,956.772a5.6,5.6,0,0,1-1.451.589,6.825,6.825,0,0,1-1.669.2,4.817,4.817,0,0,1-3.7-1.423,6.5,6.5,0,0,1,.009-7.9,4.835,4.835,0,0,1,3.7-1.428,6.451,6.451,0,0,1,1.583.192,6.814,6.814,0,0,1,1.519.593v2.445a4.391,4.391,0,0,0-1.282-.771,3.991,3.991,0,0,0-1.446-.269,2.484,2.484,0,0,0-2.007.83,3.555,3.555,0,0,0-.7,2.363,3.516,3.516,0,0,0,.7,2.354,2.5,2.5,0,0,0,2.007.821,4.01,4.01,0,0,0,1.451-.26,4.228,4.228,0,0,0,1.277-.789Z" fill="#72ad8c"/>
      <path id="パス_22" data-name="パス 22" d="M830.384,949.893a2.874,2.874,0,0,0-1.026-.6,3.971,3.971,0,0,0-1.291-.2,3.456,3.456,0,0,0-1.482.3,2.218,2.218,0,0,0-.981.862,2.31,2.31,0,0,0-.306.839,9.4,9.4,0,0,0-.087,1.5v4.707h-2.673V947.074h2.673v1.587a2.921,2.921,0,0,1,1.205-1.355,3.668,3.668,0,0,1,1.9-.478,4.383,4.383,0,0,1,1.072.132,4.336,4.336,0,0,1,1,.388Z" fill="#72ad8c"/>
      <path id="パス_23" data-name="パス 23" d="M831.093,952.192a5.692,5.692,0,0,1,1.282-3.918,4.835,4.835,0,0,1,6.9,0,6.629,6.629,0,0,1,0,7.837,4.835,4.835,0,0,1-6.9,0A5.7,5.7,0,0,1,831.093,952.192ZM835.819,949a1.708,1.708,0,0,0-1.506.844,5.319,5.319,0,0,0,0,4.7,1.773,1.773,0,0,0,3.02,0,5.319,5.319,0,0,0,0-4.7A1.715,1.715,0,0,0,835.819,949Z" fill="#72ad8c"/>
      <path id="パス_24" data-name="パス 24" d="M844.044,953.032v-7.883h-2.709V943.1h5.383v9.936a2.934,2.934,0,0,0,.374,1.706,1.48,1.48,0,0,0,1.268.5h2.135v2.053h-2.883a3.394,3.394,0,0,1-2.737-.985A5.092,5.092,0,0,1,844.044,953.032Z" fill="#72ad8c"/>
      <path id="パス_25" data-name="パス 25" d="M853.425,953.032v-7.883h-2.71V943.1H856.1v9.936a2.942,2.942,0,0,0,.374,1.706,1.481,1.481,0,0,0,1.268.5h2.135v2.053h-2.883a3.4,3.4,0,0,1-2.737-.985A5.1,5.1,0,0,1,853.425,953.032Z" fill="#72ad8c"/>
    </g>
    <path id="パス_26" data-name="パス 26" d="M800.995,957.027h90.411V1031Z" fill="#72ad8c"/>
  </g>
</svg>
